<?xml version="1.0" encoding="UTF-8"?>
<!DOCTYPE svg PUBLIC "-//W3C//DTD SVG 1.0//EN" "http://www.w3.org/TR/2001/REC-SVG-20010904/DTD/svg10.dtd">
<!-- Creator: CorelDRAW -->
<svg xmlns="http://www.w3.org/2000/svg" xml:space="preserve" width="60.2mm" height="140.2mm" version="1.0" style="shape-rendering:geometricPrecision; text-rendering:geometricPrecision; image-rendering:optimizeQuality; fill-rule:evenodd; clip-rule:evenodd"
viewBox="0 0 6011.47 14000.13"
 xmlns:xlink="http://www.w3.org/1999/xlink"
 xmlns:xodm="http://www.corel.com/coreldraw/odm/2003">
 <defs>
  <style type="text/css">
   <![CDATA[
    .str1 {stroke:#00AFEF;stroke-width:8.46;stroke-miterlimit:22.9256}
    .str0 {stroke:#848688;stroke-width:19.97;stroke-miterlimit:22.9256}
    .str2 {stroke:#00AFEF;stroke-width:84.55;stroke-linecap:round;stroke-linejoin:round;stroke-miterlimit:22.9256}
    .fil2 {fill:none}
    .fil0 {fill:#373435}
    .fil1 {fill:#00AFEF;fill-rule:nonzero}
   ]]>
  </style>
 </defs>
 <g id="_x0020_1">
  <metadata id="CorelCorpID_0Corel-Layer"/>
  <g id="add-modal">
   <rect class="fil0 str0" x="9.99" y="9.97" width="5991.5" height="13980.17" rx="303.28" ry="589.28"/>
   <path id="btn-close" class="fil1 str1" d="M5626.37 421.31l130.66 -128.51c16.41,-16.14 16.41,-42.18 0,-58.32 -16.41,-16.15 -42.87,-16.15 -59.28,0l-130.67 128.5 -130.63 -128.54c-16.41,-16.14 -42.88,-16.14 -59.29,0 -16.4,16.15 -16.4,42.19 0,58.33l130.67 128.5 -130.67 128.51c-16.4,16.14 -16.4,42.18 0,58.32 16.44,16.15 43.01,16.15 59.29,0l130.66 -128.5 130.67 128.5c16.41,16.15 42.88,16.15 59.28,0 16.29,-16.14 16.29,-42.18 -0.16,-58.36l-130.53 -128.43z"/>
   <g id="btn-back">
    <path class="fil2 str2" d="M297.34 354.97l438.07 0c74.43,0 134.79,59.38 134.79,132.62l0 0c0,73.24 -60.35,132.61 -134.79,132.61l-168.49 0"/>
    <path class="fil2 str2" d="M398.43 222.35l-134.8 132.61 134.8 132.62"/>
   </g>
   <g id="btn-attach-file">
    <g id="__xd83d__xdd0d_-Product-Icons">
     <g id="ic_fluent_attach_with_text_24_filled">
      <path id="__xd83c__xdfa8_-Color" class="fil1" d="M2844.12 260.97c97.57,0 177.16,75.78 181.28,170.79l0.17 7.74 0 392.76c0,59.16 -48.74,107.12 -108.88,107.12 -57.98,0 -105.37,-44.6 -108.69,-100.83l-0.18 -6.29 0 -357.05c0,-19.72 16.25,-35.71 36.29,-35.71 18.61,0 33.95,13.79 36.05,31.55l0.24 4.16 0 357.05c0,19.72 16.25,35.7 36.29,35.7 18.61,0 33.95,-13.78 36.05,-31.54l0.24 -4.16 0 -392.76c0,-59.16 -48.74,-107.11 -108.87,-107.11 -57.98,0 -105.37,44.59 -108.69,100.82l-0.19 6.29 0 321.35c0,19.71 -16.25,35.7 -36.29,35.7 -18.6,0 -33.95,-13.78 -36.04,-31.54l-0.25 -4.16 0 -321.35c0,-98.59 81.23,-178.53 181.45,-178.53zm290.32 499.88l72.58 0c20.05,0 36.3,15.98 36.3,35.7 0,18.31 -14.01,33.4 -32.06,35.47l-4.23 0.24 -72.58 0c-20.04,0 -36.29,-15.99 -36.29,-35.71 0,-18.31 14.01,-33.4 32.05,-35.46l4.23 -0.24 72.58 0 -72.58 0zm0 -142.83l199.6 0c20.04,0 36.29,15.99 36.29,35.71 0,18.31 -14.01,33.4 -32.05,35.46l-4.23 0.24 -199.6 0c-20.04,0 -36.29,-15.98 -36.29,-35.7 0,-18.31 14.01,-33.4 32.05,-35.47l4.23 -0.24 199.6 0 -199.6 0zm0 -142.82l199.6 0c20.04,0 36.29,15.99 36.29,35.71 0,18.3 -14.01,33.4 -32.05,35.46l-4.23 0.24 -199.6 0c-20.04,0 -36.29,-15.99 -36.29,-35.7 0,-18.31 14.01,-33.4 32.05,-35.47l4.23 -0.24 199.6 0 -199.6 0zm0 -142.82l199.6 0c20.04,0 36.29,15.98 36.29,35.7 0,18.31 -14.01,33.4 -32.05,35.47l-4.23 0.24 -199.6 0c-20.04,0 -36.29,-15.99 -36.29,-35.71 0,-18.3 14.01,-33.4 32.05,-35.46l4.23 -0.24 199.6 0 -199.6 0z"/>
     </g>
    </g>
   </g>
  </g>
 </g>
</svg>
