<?xml version="1.0" encoding="UTF-8"?>
<!DOCTYPE svg PUBLIC "-//W3C//DTD SVG 1.0//EN" "http://www.w3.org/TR/2001/REC-SVG-20010904/DTD/svg10.dtd">
<!-- Creator: CorelDRAW -->
<svg xmlns="http://www.w3.org/2000/svg" xml:space="preserve" width="85.2mm" height="27.2mm" version="1.0" style="shape-rendering:geometricPrecision; text-rendering:geometricPrecision; image-rendering:optimizeQuality; fill-rule:evenodd; clip-rule:evenodd"
viewBox="0 0 8511.47 2717.28"
 xmlns:xlink="http://www.w3.org/1999/xlink"
 xmlns:xodm="http://www.corel.com/coreldraw/odm/2003">
 <defs>
  <style type="text/css">
   <![CDATA[
    .str1 {stroke:#FEFEFE;stroke-width:8.46;stroke-miterlimit:22.9256}
    .str2 {stroke:#FEFEFE;stroke-width:16.91;stroke-miterlimit:22.9256}
    .str0 {stroke:#848688;stroke-width:19.98;stroke-miterlimit:22.9256}
    .str3 {stroke:#FEFEFE;stroke-width:42.29;stroke-linecap:round;stroke-linejoin:round;stroke-miterlimit:22.9256}
    .fil1 {fill:none}
    .fil0 {fill:#373435}
    .fil2 {fill:#FEFEFE;fill-rule:nonzero}
   ]]>
  </style>
 </defs>
 <g id="_x0020_1">
  <metadata id="CorelCorpID_0Corel-Layer"/>
  <g id="add-modal">
   <rect class="fil0 str0" x="9.99" y="9.99" width="8491.49" height="2697.3" rx="301.35" ry="299.84"/>
   <g id="btn-add-image">
    <rect class="fil1 str0" x="3401.91" y="509.1" width="1707.65" height="1699.08" rx="294.5" ry="299.84"/>
    <g>
     <path class="fil2 str1" d="M4029.17 1662.93l575.16 0c17.5,0 16.6,-2.93 16.6,-20.35l0 -545.03c0,-17.42 -2.38,-34.31 -19.92,-34.31l-587.71 0c-17.51,0 -26.8,16.86 -26.8,34.31l0 545.03c0,17.42 25.15,20.35 42.67,20.35zm-10.95 -31.57l0 -186.69c3.54,-0.33 7.03,-1.64 9.74,-4.34l121.67 -121.06 155.85 132.97 -118.91 118.3c-6.2,6.17 -6.2,16.14 0,22.32 3.1,3.08 7.15,4.63 11.21,4.63 4.07,0 8.12,-1.55 11.22,-4.63l202.53 -201.52 177.67 176.78 0 63.23 -570.98 0 0 0.01zm571 -536.56l0 428.71 -166.46 -165.62c-6.2,-6.16 -16.22,-6.16 -22.43,0l-72.52 72.16c-0.28,-0.29 -0.41,-0.67 -0.73,-0.93l-167.95 -143.3c-6.27,-5.35 -15.66,-5 -21.54,0.82l-119.37 118.77 0 -310.61 571 0z"/>
     <path class="fil2 str1" d="M4453.99 1309.49c47.87,0 86.8,-38.74 86.8,-86.36 0,-47.63 -38.93,-86.37 -86.8,-86.37 -47.86,0 -86.8,38.74 -86.8,86.37 0,47.62 38.94,86.36 86.8,86.36zm0 -141.18c30.37,0 55.08,24.59 55.08,54.82 0,30.22 -24.72,54.81 -55.08,54.81 -30.37,0 -55.08,-24.59 -55.08,-54.81 0,-30.23 24.72,-54.82 55.08,-54.82z"/>
    </g>
   </g>
   <g id="btn-add-file">
    <rect class="fil1 str0" x="6114.06" y="509.1" width="1707.65" height="1699.08" rx="294.5" ry="299.84"/>
    <g id="line-drawing-folder-2-svg">
     <g>
      <path class="fil2 str2" d="M7301.08 1177.66c-13.51,-13.48 -32.46,-21.89 -53.11,-21.88l-340.09 0c-4.18,0 -8.23,-1.59 -11.31,-4.47l0.03 0.03 -59.76 -55.75c-13.94,-12.99 -32.3,-20.22 -51.38,-20.22l-97.67 0c-20.65,-0.01 -39.62,8.42 -53.12,21.89 -13.54,13.44 -22.01,32.3 -22,52.85l0 450.18c-0.01,20.55 8.46,39.42 22,52.85 13.5,13.48 32.47,21.9 53.12,21.89l560.18 0c20.65,0.01 39.61,-8.41 53.11,-21.89 13.55,-13.43 22.02,-32.3 22,-52.85l0 -369.79c0.01,-20.54 -8.45,-39.41 -22,-52.84zm-36.6 422.63c-0.01,4.63 -1.8,8.54 -4.83,11.61 -3.1,3.03 -7.03,4.81 -11.68,4.82l-560.18 0c-4.66,-0.01 -8.59,-1.79 -11.68,-4.82 -3.04,-3.07 -4.82,-6.98 -4.83,-11.61l0 -243.41 593.19 0 0 243.41 0 0zm0 -290.05l-593.2 0 0 -160.13c0.01,-4.63 1.8,-8.54 4.84,-11.62 3.09,-3.02 7.02,-4.8 11.67,-4.81l97.68 0c4.21,0 8.22,1.59 11.3,4.45l59.75 55.74 0.02 0.04c13.9,12.93 32.25,20.18 51.35,20.18l340.09 0c4.65,0.01 8.59,1.79 11.67,4.81 3.04,3.06 4.83,6.98 4.84,11.6l0 79.74 0 0z"/>
     </g>
    </g>
   </g>
   <g id="btn-add-photo">
    <rect class="fil1 str0" x="689.76" y="509.1" width="1707.65" height="1699.08" rx="294.5" ry="299.84"/>
    <g id="vector-camera-svg">
     <ellipse class="fil1 str3" cx="1543.58" cy="1358.97" rx="181.76" ry="180.85"/>
     <ellipse class="fil1 str3" cx="1543.58" cy="1358.97" rx="114.8" ry="114.22"/>
     <path class="fil1 str3" d="M1861.24 1101.97l-153.51 0 -33.48 -74.93c-2.92,-6.52 -9.42,-10.73 -16.59,-10.73l-228.16 0c-7.17,0 -13.68,4.21 -16.59,10.73l-33.48 74.94 -153.51 -0.01c-20.05,0 -36.3,16.18 -36.3,36.12l0 441.77c0,19.95 16.25,36.12 36.3,36.12l635.31 0c20.04,0 36.3,-16.17 36.3,-36.12l0 -441.77c0,-19.94 -16.26,-36.12 -36.3,-36.12z"/>
    </g>
   </g>
  </g>
 </g>
</svg>
