<?xml version="1.0" encoding="UTF-8"?>
<!DOCTYPE svg PUBLIC "-//W3C//DTD SVG 1.0//EN" "http://www.w3.org/TR/2001/REC-SVG-20010904/DTD/svg10.dtd">
<!-- Creator: CorelDRAW -->
<svg xmlns="http://www.w3.org/2000/svg" xml:space="preserve" width="85.2mm" height="140.2mm" version="1.0" style="shape-rendering:geometricPrecision; text-rendering:geometricPrecision; image-rendering:optimizeQuality; fill-rule:evenodd; clip-rule:evenodd"
viewBox="0 0 8511.47 14005.96"
 xmlns:xlink="http://www.w3.org/1999/xlink"
 xmlns:xodm="http://www.corel.com/coreldraw/odm/2003">
 <defs>
  <style type="text/css">
   <![CDATA[
    .str3 {stroke:#00AFEF;stroke-width:8.46;stroke-miterlimit:22.9256}
    .str5 {stroke:#00AFEF;stroke-width:16.91;stroke-miterlimit:22.9256}
    .str0 {stroke:#E6E7E8;stroke-width:19.98;stroke-miterlimit:22.9256}
    .str2 {stroke:#606062;stroke-width:19.98;stroke-miterlimit:22.9256}
    .str1 {stroke:#00AFEF;stroke-width:67.66;stroke-linecap:round;stroke-miterlimit:22.9256}
    .str4 {stroke:#00AFEF;stroke-width:84.59;stroke-linecap:round;stroke-linejoin:round;stroke-miterlimit:22.9256}
    .fil1 {fill:none}
    .fil0 {fill:#373435}
    .fil2 {fill:#00AFEF}
    .fil3 {fill:#00AFEF;fill-rule:nonzero}
   ]]>
  </style>
 </defs>
 <g id="-_x0020_1">
  <metadata id="CorelCorpID_0Corel-Layer"/>
  <g id="crm-notes-modal">
   <rect id="crm-notes-modal_439" class="fil0 str0" x="9.98" y="9.98" width="8491.49" height="13985.98" rx="429.83" ry="589.52"/>
   <g id="btn-add-note">
    <path class="fil1 str1" d="M7704.06 2395.15l0 199.13"/>
    <path class="fil1 str1" d="M7803.63 2494.72l-199.13 0"/>
    <path class="fil1 str1" d="M8144.9 2494.72l0 -273.48c0,-100.69 -81.62,-182.32 -182.32,-182.32l-531.99 0c-100.69,0 -182.32,81.63 -182.32,182.32l0 546.94c0,100.69 81.63,182.31 182.32,182.31l265.99 0"/>
    <path class="fil2 str1" d="M8141.89 2688.12l-97.28 -98.9c-9.86,-10.04 -25.85,-10.04 -35.72,0l-187.1 190.22c-5.41,5.5 -8.08,13.21 -7.25,20.96l10.7 99.39c0.65,5.99 5.29,10.72 11.19,11.37l97.76 10.88c7.61,0.85 15.19,-1.86 20.62,-7.36l187.09 -190.23c9.87,-10.03 9.87,-26.29 0,-36.32z"/>
   </g>
   <rect id="cell-notes-header" class="fil1 str2" x="399.84" y="1761.61" width="6484.69" height="1466.2" rx="108.2" ry="199.8"/>
   <rect id="cell-notes-text" class="fil1 str2" x="399.86" y="3509.59" width="7749.44" height="10054.94" rx="154.12" ry="259.23"/>
   <path id="btn-close" class="fil3 str3" d="M8118.49 441.93l129.13 -129.06c16.21,-16.21 16.21,-42.37 0,-58.58 -16.21,-16.21 -42.37,-16.21 -58.58,0l-129.13 129.06 -129.09 -129.09c-16.21,-16.21 -42.37,-16.21 -58.58,0 -16.21,16.21 -16.21,42.37 0,58.58l129.13 129.06 -129.13 129.06c-16.21,16.21 -16.21,42.37 0,58.58 16.24,16.21 42.5,16.21 58.58,0l129.13 -129.06 129.12 129.06c16.21,16.21 42.37,16.21 58.58,0 16.08,-16.21 16.08,-42.37 -0.16,-58.61l-129 -129z"/>
   <g id="btn-back">
    <path class="fil1 str4" d="M284.98 375.29l432.89 0c73.57,0 133.2,59.64 133.2,133.21l0 0c0,73.56 -59.63,133.2 -133.2,133.2l-166.49 0"/>
    <path class="fil1 str4" d="M384.88 242.1l-133.2 133.2 133.2 133.21"/>
   </g>
   <g id="btn-add">
    <g id="__xd83d__xdd0d_-Product-Icons">
     <g id="ic_fluent_attach_with_text_24_filled">
      <path id="__xd83c__xdfa8_-Color" class="fil3 str5" d="M4085.4 101.21c96.42,0 175.06,76.11 179.14,171.54l0.16 7.77 0 394.47c0,59.42 -48.16,107.59 -107.58,107.59 -57.29,0 -104.13,-44.8 -107.4,-101.27l-0.18 -6.32 0 -358.61c0,-19.81 16.05,-35.86 35.86,-35.86 18.39,0 33.55,13.85 35.61,31.68l0.24 4.19 0 358.61c0,19.81 16.06,35.86 35.86,35.86 18.39,0 33.55,-13.85 35.62,-31.68l0.24 -4.19 0 -394.47c0,-59.41 -48.17,-107.58 -107.58,-107.58 -57.3,0 -104.14,44.79 -107.4,101.26l-0.19 6.32 0 322.76c0,19.8 -16.05,35.86 -35.85,35.86 -18.39,0 -33.55,-13.85 -35.62,-31.69l-0.24 -4.18 0 -322.76c0,-99.03 80.28,-179.31 179.31,-179.31zm286.89 502.07l71.72 0c19.81,0 35.86,16.05 35.86,35.86 0,18.39 -13.85,33.55 -31.68,35.61l-4.19 0.24 -71.72 0c-19.81,0 -35.86,-16.05 -35.86,-35.85 0,-18.39 13.85,-33.56 31.68,-35.62l4.19 -0.24 71.72 0 -71.72 0zm0 -143.45l197.23 0c19.81,0 35.86,16.05 35.86,35.86 0,18.39 -13.85,33.55 -31.68,35.61l-4.19 0.24 -197.23 0c-19.81,0 -35.86,-16.05 -35.86,-35.85 0,-18.39 13.85,-33.56 31.68,-35.62l4.19 -0.24 197.23 0 -197.23 0zm0 -143.45l197.23 0c19.81,0 35.86,16.05 35.86,35.86 0,18.39 -13.85,33.55 -31.68,35.61l-4.19 0.24 -197.23 0c-19.81,0 -35.86,-16.05 -35.86,-35.85 0,-18.39 13.85,-33.56 31.68,-35.62l4.19 -0.24 197.23 0 -197.23 0zm0 -143.45l197.23 0c19.81,0 35.86,16.05 35.86,35.86 0,18.39 -13.85,33.55 -31.68,35.61l-4.19 0.24 -197.23 0c-19.81,0 -35.86,-16.05 -35.86,-35.85 0,-18.39 13.85,-33.56 31.68,-35.62l4.19 -0.24 197.23 0 -197.23 0z"/>
     </g>
    </g>
   </g>
  </g>
 </g>
</svg>
