<?xml version="1.0" encoding="UTF-8"?>
<!DOCTYPE svg PUBLIC "-//W3C//DTD SVG 1.0//EN" "http://www.w3.org/TR/2001/REC-SVG-20010904/DTD/svg10.dtd">
<!-- Creator: CorelDRAW -->
<svg xmlns="http://www.w3.org/2000/svg" xml:space="preserve" width="15.2mm" height="85.2mm" version="1.0" style="shape-rendering:geometricPrecision; text-rendering:geometricPrecision; image-rendering:optimizeQuality; fill-rule:evenodd; clip-rule:evenodd"
viewBox="0 0 493.92 2768.54"
 xmlns:xlink="http://www.w3.org/1999/xlink"
 xmlns:xodm="http://www.corel.com/coreldraw/odm/2003">
 <defs>
  <style type="text/css">
   <![CDATA[
    .str2 {stroke:#FEFEFE;stroke-width:11.01;stroke-miterlimit:22.9256}
    .str3 {stroke:#FEFEFE;stroke-width:13.75;stroke-miterlimit:22.9256}
    .str4 {stroke:#FEFEFE;stroke-width:5.5;stroke-miterlimit:22.9256}
    .str0 {stroke:#848688;stroke-width:6.5;stroke-miterlimit:22.9256}
    .str1 {stroke:#FEFEFE;stroke-width:13.75;stroke-linecap:round;stroke-linejoin:round;stroke-miterlimit:22.9256}
    .fil1 {fill:none}
    .fil2 {fill:none;fill-rule:nonzero}
    .fil3 {fill:#FEFEFE}
    .fil0 {fill:#373435}
   ]]>
  </style>
 </defs>
 <g id="_x0020_1">
  <metadata id="CorelCorpID_0Corel-Layer"/>
  <g id="socials-modal">
   <rect class="fil0 str0" transform="matrix(1.47204E-14 -1.00551 0.555813 2.66304E-14 3.24856 2765.29)" width="2746.91" height="876.95" rx="97.48" ry="97.48"/>
   <g id="btn-mail">
    <path class="fil1 str1" d="M131.23 2375.36l227.46 0c15.64,0 28.43,12.79 28.43,28.43l0 170.6c0,15.64 -12.79,28.43 -28.43,28.43l-227.46 0c-15.64,0 -28.43,-12.79 -28.43,-28.43l0 -170.6c0,-15.64 12.79,-28.43 28.43,-28.43l0 0z"/>
    <path class="fil1 str1" d="M387.12 2403.79l-142.16 99.51 -142.16 -99.51"/>
   </g>
   <g id="btn-telegram">
    <circle class="fil2 str2" cx="244.96" cy="831.86" r="113.73"/>
    <path class="fil2 str2" d="M301.71 784.82c1.01,-6.54 -5.21,-11.71 -11.03,-9.15l-115.88 50.88c-4.17,1.83 -3.87,8.15 0.46,9.53l23.9 7.61c4.56,1.45 9.5,0.7 13.48,-2.05l53.88 -37.22c1.62,-1.12 3.4,1.19 2.01,2.62l-38.78 39.98c-3.76,3.88 -3.02,10.45 1.51,13.29l43.42 27.23c4.87,3.05 11.13,-0.01 12.05,-5.9l14.98 -96.81z"/>
   </g>
   <g id="btn-whatsapp">
    <path class="fil2 str3" d="M308.22 1413.39l-7.82 -3.55c0,0 -11.37,-4.98 -18.48,-8.53 -0.71,0 -1.42,-0.71 -2.13,-0.71 -2.13,0 -3.55,0.71 -4.97,1.43l0 0c0,0 -0.71,0.71 -10.66,12.08 -0.71,1.42 -2.13,2.13 -3.55,2.13l-0.71 0c-0.71,0 -2.13,-0.71 -2.84,-1.42l-3.55 -1.42 0 0c-7.82,-3.55 -14.93,-7.82 -20.61,-13.51 -1.42,-1.42 -3.55,-2.84 -4.97,-4.26 -4.97,-4.97 -9.95,-10.66 -13.51,-17.06l-0.71 -1.42c-0.71,-0.71 -0.71,-1.42 -1.42,-2.84 0,-1.42 0,-2.84 0.71,-3.55 0,0 2.84,-3.55 4.97,-5.68 1.42,-1.43 2.13,-3.55 3.55,-4.98 1.42,-2.13 2.13,-4.97 1.42,-7.11 -0.71,-3.55 -9.24,-22.75 -11.37,-27.01 -1.42,-2.13 -2.84,-2.84 -4.98,-3.55l-2.13 0c-1.42,0 -3.55,0 -5.69,0 -1.42,0 -2.84,0.71 -4.26,0.71l-0.71 0.71c-1.42,0.71 -2.84,2.13 -4.26,2.84 -1.42,1.43 -2.13,2.85 -3.55,4.27 -4.97,6.39 -7.82,14.21 -7.82,22.03l0 0c0,5.69 1.42,11.37 3.55,16.35l0.71 2.13c6.4,13.5 14.93,25.59 26.3,36.25l2.84 2.84c2.13,2.13 4.26,3.55 5.69,5.69 14.92,12.8 31.99,22.03 51.18,27.01 2.13,0.71 4.97,0.71 7.11,1.42l0 0c2.13,0 4.97,0 7.11,0 3.55,0 7.82,-1.42 10.66,-2.84 2.13,-1.42 3.55,-1.42 4.98,-2.84l1.42 -1.42c1.42,-1.42 2.84,-2.13 4.26,-3.55 1.42,-1.42 2.84,-2.84 3.55,-4.27 1.42,-2.84 2.13,-6.4 2.84,-9.95 0,-1.42 0,-3.55 0,-4.97 0,0 -0.71,-0.71 -2.13,-1.42z"/>
    <path class="fil2 str3" d="M245.67 1492.29l0 0c-19.19,0 -38.38,-4.98 -54.73,-14.93l-4.27 -2.13 -41.23 10.66 10.66 -40.52 -2.84 -4.27c-31.28,-50.46 -16.35,-117.28 34.83,-148.56 51.18,-31.27 117.29,-16.34 148.56,34.83 31.27,51.18 16.35,117.28 -34.83,148.56 -16.35,10.66 -36.25,16.35 -56.15,16.35z"/>
   </g>
   <path id="btn-messenger" class="fil2 str3" d="M244.95 1822.95c-62.17,0 -112.59,47.12 -112.59,105.29 0,33.06 16.31,62.58 41.84,81.87l0 40.3 38.43 -21.32c10.25,2.88 21.08,4.42 32.34,4.42 62.17,0 112.59,-47.14 112.59,-105.28 -0.01,-58.17 -50.43,-105.29 -112.61,-105.29zm11.85 141.18l-29.13 -30.25 -56.08 31.01 61.48 -65.24 29.13 30.27 56.1 -31.03 -61.49 65.25z"/>
   <g id="btn-coll" sketch:type="MSPage">
    <g id="Phone" sketch:type="MSLayerGroup">
     <path id="Shape" class="fil3 str4" d="M328.62 169.81c0,0 -28.02,-3.66 -83.66,-4.06 0,0 0,0 -0.41,0 -55.64,-0.41 -81.63,4.06 -81.63,4.06 -22.34,7.31 -41.43,29.24 -41.83,62.95 0,18.68 17.06,21.93 49.95,22.34l0 0 0.41 0c29.24,0.41 38.58,-11.78 35.74,-24.77 -0.41,-2.44 -4.87,-10.15 -6.09,-11.37 0,0 -5.69,-8.93 44.27,-8.53 49.95,0.41 43.86,9.34 43.86,9.34 -1.22,1.22 -5.68,8.94 -6.5,11.37 -3.25,12.99 7.31,23.96 36.55,23.96l0.41 0 0 0c32.9,0.41 48.74,-1.22 49.14,-19.9 0.41,-28.02 -17.87,-57.67 -40.21,-65.39l0 0z" sketch:type="MSShapeGroup"/>
     <path id="Shape_72" class="fil3 str4" d="M190.13 298.96c0,4.47 -3.66,8.12 -8.12,8.12l-23.96 0c-4.47,0 -8.12,-3.66 -8.12,-8.12l0 -11.37c0,-4.47 3.66,-8.12 8.12,-8.12l23.96 0c4.47,0 8.12,3.66 8.12,8.12l0 11.37 0 0z" sketch:type="MSShapeGroup"/>
     <path id="Shape_73" class="fil3 str4" d="M263.23 298.96c0,4.47 -3.66,8.12 -8.12,8.12l-23.96 0c-4.46,0 -8.12,-3.66 -8.12,-8.12l0 -11.37c0,-4.47 3.66,-8.12 8.12,-8.12l23.96 0c4.46,0 8.12,3.66 8.12,8.12l0 11.37 0 0z" sketch:type="MSShapeGroup"/>
     <path id="Shape_74" class="fil3 str4" d="M336.34 298.96c0,4.47 -3.66,8.12 -8.12,8.12l-23.96 0c-4.47,0 -8.12,-3.66 -8.12,-8.12l0 -11.37c0,-4.47 3.66,-8.12 8.12,-8.12l23.96 0c4.47,0 8.12,3.66 8.12,8.12l0 11.37 0 0z" sketch:type="MSShapeGroup"/>
     <path id="Shape_75" class="fil3 str4" d="M190.13 343.64c0,4.46 -3.66,8.12 -8.12,8.12l-23.96 0c-4.47,0 -8.12,-3.66 -8.12,-8.12l0 -11.37c0,-4.47 3.66,-8.12 8.12,-8.12l23.96 0c4.47,0 8.12,3.66 8.12,8.12l0 11.37 0 0z" sketch:type="MSShapeGroup"/>
     <path id="Shape_76" class="fil3 str4" d="M263.23 343.64c0,4.46 -3.66,8.12 -8.12,8.12l-23.96 0c-4.46,0 -8.12,-3.66 -8.12,-8.12l0 -11.37c0,-4.47 3.66,-8.12 8.12,-8.12l23.96 0c4.46,0 8.12,3.66 8.12,8.12l0 11.37 0 0z" sketch:type="MSShapeGroup"/>
     <path id="Shape_77" class="fil3 str4" d="M336.34 343.64c0,4.46 -3.66,8.12 -8.12,8.12l-23.96 0c-4.47,0 -8.12,-3.66 -8.12,-8.12l0 -11.37c0,-4.47 3.66,-8.12 8.12,-8.12l23.96 0c4.47,0 8.12,3.66 8.12,8.12l0 11.37 0 0z" sketch:type="MSShapeGroup"/>
     <path id="Shape_78" class="fil3 str4" d="M190.13 385.06c0,4.47 -3.66,8.12 -8.12,8.12l-23.96 0c-4.47,0 -8.12,-3.66 -8.12,-8.12l0 -11.37c0,-4.46 3.66,-8.12 8.12,-8.12l23.96 0c4.47,0 8.12,3.66 8.12,8.12l0 11.37 0 0z" sketch:type="MSShapeGroup"/>
     <path id="Shape_79" class="fil3 str4" d="M263.23 385.06c0,4.47 -3.66,8.12 -8.12,8.12l-23.96 0c-4.46,0 -8.12,-3.66 -8.12,-8.12l0 -11.37c0,-4.46 3.66,-8.12 8.12,-8.12l23.96 0c4.46,0 8.12,3.66 8.12,8.12l0 11.37 0 0z" sketch:type="MSShapeGroup"/>
     <path id="Shape_80" class="fil3 str4" d="M336.34 385.06c0,4.47 -3.66,8.12 -8.12,8.12l-23.96 0c-4.47,0 -8.12,-3.66 -8.12,-8.12l0 -11.37c0,-4.46 3.66,-8.12 8.12,-8.12l23.96 0c4.47,0 8.12,3.66 8.12,8.12l0 11.37 0 0z" sketch:type="MSShapeGroup"/>
    </g>
   </g>
  </g>
 </g>
</svg>
